<svg width="14" height="14" viewBox="0 0 14 14" fill="none" xmlns="http://www.w3.org/2000/svg">
<path d="M3 0.5C1.61929 0.5 0.5 1.61929 0.5 3C0.5 4.38071 1.61929 5.5 3 5.5C4.38071 5.5 5.5 4.38071 5.5 3C5.5 1.61929 4.38071 0.5 3 0.5Z" fill="#A4B6E1"/>
<path d="M3 8.5C1.61929 8.5 0.5 9.61929 0.5 11C0.5 12.3807 1.61929 13.5 3 13.5C4.38071 13.5 5.5 12.3807 5.5 11C5.5 9.61929 4.38071 8.5 3 8.5Z" fill="#A4B6E1"/>
<path d="M11 0.5C9.61929 0.5 8.5 1.61929 8.5 3C8.5 4.38071 9.61929 5.5 11 5.5C12.3807 5.5 13.5 4.38071 13.5 3C13.5 1.61929 12.3807 0.5 11 0.5Z" fill="#A4B6E1"/>
<path d="M11 8.5C9.61929 8.5 8.5 9.61929 8.5 11C8.5 12.3807 9.61929 13.5 11 13.5C12.3807 13.5 13.5 12.3807 13.5 11C13.5 9.61929 12.3807 8.5 11 8.5Z" fill="#A4B6E1"/>
</svg>
